<svg xmlns="http://www.w3.org/2000/svg" xmlns:xlink="http://www.w3.org/1999/xlink" width="1080" height="160"><g transform="translate(-40 -60)"><path d="M0 0h1360v1760H0z" fill="#fff"/><path d="M660 140h59" stroke="#000" stroke-width="2" fill="none"/><path d="M660 141v-2zM719 140l-14.27 4.64v-9.28z"/><path d="M720 139.27v1.46L703.73 146v-12zm-14.27 4l10.03-3.27-10.03-3.26z"/><path d="M880 140h59" stroke="#000" stroke-width="2" fill="none"/><path d="M939 140l-14.27 4.64v-9.28z"/><path d="M940 139.27v1.46L923.73 146v-12zm-14.27 4l10.03-3.27-10.03-3.26z"/><path d="M220 140h59" stroke="#000" stroke-width="2" fill="none"/><path d="M279 140l-14.27 4.64v-9.28z"/><path d="M280 139.27v1.46L263.73 146v-12zm-14.27 4l10.03-3.27-10.03-3.26z"/><path d="M440 140h59" stroke="#000" stroke-width="2" fill="none"/><path d="M499 140l-14.27 4.64v-9.28z"/><path d="M500 139.27v1.46L483.73 146v-12zm-14.27 4l10.03-3.27-10.03-3.26z"/><path d="M60 85c0-2.76 2.24-5 5-5h150c2.76 0 5 2.24 5 5v110c0 2.76-2.24 5-5 5H65c-2.76 0-5-2.24-5-5z" stroke="#000" stroke-width="2" fill="#fff"/><use xlink:href="#a" transform="matrix(1,0,0,1,60,80) translate(34.10499999999999 51.9)"/><use xlink:href="#b" transform="matrix(1,0,0,1,60,80) translate(42.529999999999994 73.5)"/><path d="M280 85c0-2.76 2.24-5 5-5h150c2.76 0 5 2.24 5 5v110c0 2.76-2.24 5-5 5H285c-2.76 0-5-2.24-5-5z" stroke="#000" stroke-width="2" fill="#fff"/><use xlink:href="#c" transform="matrix(1,0,0,1,280,80) translate(8.408703703703688 43.86666666666667)"/><use xlink:href="#d" transform="matrix(1,0,0,1,280,80) translate(103.54944444444445 43.86666666666667)"/><use xlink:href="#e" transform="matrix(1,0,0,1,280,80) translate(137.15685185185185 43.86666666666667)"/><use xlink:href="#f" transform="matrix(1,0,0,1,280,80) translate(37.70685185185184 64.66666666666667)"/><use xlink:href="#g" transform="matrix(1,0,0,1,280,80) translate(52.15129629629629 64.66666666666667)"/><use xlink:href="#h" transform="matrix(1,0,0,1,280,80) translate(47.28833333333332 85.46666666666668)"/><path d="M500 85c0-2.76 2.24-5 5-5h150c2.76 0 5 2.24 5 5v110c0 2.76-2.24 5-5 5H505c-2.76 0-5-2.24-5-5z" stroke="#000" stroke-width="2" fill="#fff"/><g><use xlink:href="#i" transform="matrix(1,0,0,1,500,80) translate(35.46796296296295 32.61666666666667)"/><use xlink:href="#j" transform="matrix(1,0,0,1,500,80) translate(100.46796296296297 32.61666666666667)"/><use xlink:href="#k" transform="matrix(1,0,0,1,500,80) translate(10.743888888888884 53.41666666666667)"/><use xlink:href="#l" transform="matrix(1,0,0,1,500,80) translate(99.2401851851852 53.41666666666667)"/><use xlink:href="#m" transform="matrix(1,0,0,1,500,80) translate(12.236481481481471 74.21666666666668)"/><use xlink:href="#n" transform="matrix(1,0,0,1,500,80) translate(67.02907407407407 74.21666666666668)"/><use xlink:href="#o" transform="matrix(1,0,0,1,500,80) translate(85.27722222222222 74.21666666666668)"/><use xlink:href="#p" transform="matrix(1,0,0,1,500,80) translate(114.16611111111112 74.21666666666668)"/><use xlink:href="#q" transform="matrix(1,0,0,1,500,80) translate(53.09018518518518 95.01666666666668)"/><use xlink:href="#r" transform="matrix(1,0,0,1,500,80) translate(89.63462962962963 95.01666666666668)"/></g><path d="M720 85c0-2.76 2.24-5 5-5h150c2.76 0 5 2.24 5 5v110c0 2.76-2.24 5-5 5H725c-2.76 0-5-2.24-5-5z" stroke="#000" stroke-width="2" fill="#fff"/><g><use xlink:href="#s" transform="matrix(1,0,0,1,720,80) translate(32.91611111111109 62.61666666666667)"/></g><path d="M940 85c0-2.76 2.24-5 5-5h150c2.76 0 5 2.24 5 5v110c0 2.76-2.24 5-5 5H945c-2.76 0-5-2.24-5-5z" stroke="#000" stroke-width="2" fill="#fff"/><g><use xlink:href="#t" transform="matrix(1,0,0,1,940,80) translate(33.34944444444443 32.61666666666667)"/><use xlink:href="#u" transform="matrix(1,0,0,1,940,80) translate(117.03092592592594 32.61666666666667)"/><use xlink:href="#v" transform="matrix(1,0,0,1,940,80) translate(14.114259259259237 53.41666666666667)"/><use xlink:href="#w" transform="matrix(1,0,0,1,940,80) translate(107.37722222222223 53.41666666666667)"/><use xlink:href="#x" transform="matrix(1,0,0,1,940,80) translate(38.621666666666655 74.21666666666668)"/><use xlink:href="#y" transform="matrix(1,0,0,1,940,80) translate(62.69574074074074 74.21666666666668)"/><use xlink:href="#z" transform="matrix(1,0,0,1,940,80) translate(77.14018518518517 74.21666666666668)"/><use xlink:href="#A" transform="matrix(1,0,0,1,940,80) translate(14.114259259259251 95.01666666666668)"/><use xlink:href="#B" transform="matrix(1,0,0,1,940,80) translate(91.055 95.01666666666668)"/></g><defs><path d="M212-179c-10-28-35-45-73-45-59 0-87 40-87 99 0 60 29 101 89 101 43 0 62-24 78-52l27 14C228-24 195 4 139 4 59 4 22-46 18-125c-6-104 99-153 187-111 19 9 31 26 39 46" id="C"/><path d="M100-194c62-1 85 37 85 99 1 63-27 99-86 99S16-35 15-95c0-66 28-99 85-99zM99-20c44 1 53-31 53-75 0-43-8-75-51-75s-53 32-53 75 10 74 51 75" id="D"/><path d="M117-194c89-4 53 116 60 194h-32v-121c0-31-8-49-39-48C34-167 62-67 57 0H25l-1-190h30c1 10-1 24 2 32 11-22 29-35 61-36" id="E"/><path d="M101-234c-31-9-42 10-38 44h38v23H63V0H32v-167H5v-23h27c-7-52 17-82 69-68v24" id="F"/><path d="M24-231v-30h32v30H24zM24 0v-190h32V0H24" id="G"/><path d="M177-190C167-65 218 103 67 71c-23-6-38-20-44-43l32-5c15 47 100 32 89-28v-30C133-14 115 1 83 1 29 1 15-40 15-95c0-56 16-97 71-98 29-1 48 16 59 35 1-10 0-23 2-32h30zM94-22c36 0 50-32 50-73 0-42-14-75-50-75-39 0-46 34-46 75s6 73 46 73" id="H"/><path d="M84 4C-5 8 30-112 23-190h32v120c0 31 7 50 39 49 72-2 45-101 50-169h31l1 190h-30c-1-10 1-25-2-33-11 22-28 36-60 37" id="I"/><path d="M114-163C36-179 61-72 57 0H25l-1-190h30c1 12-1 29 2 39 6-27 23-49 58-41v29" id="J"/><g id="a"><use transform="matrix(0.05,0,0,0.05,0,0)" xlink:href="#C"/><use transform="matrix(0.05,0,0,0.05,12.950000000000001,0)" xlink:href="#D"/><use transform="matrix(0.05,0,0,0.05,22.950000000000003,0)" xlink:href="#E"/><use transform="matrix(0.05,0,0,0.05,32.95,0)" xlink:href="#F"/><use transform="matrix(0.05,0,0,0.05,37.95,0)" xlink:href="#G"/><use transform="matrix(0.05,0,0,0.05,41.900000000000006,0)" xlink:href="#H"/><use transform="matrix(0.05,0,0,0.05,51.900000000000006,0)" xlink:href="#I"/><use transform="matrix(0.05,0,0,0.05,61.900000000000006,0)" xlink:href="#J"/><use transform="matrix(0.05,0,0,0.05,67.85000000000001,0)" xlink:href="#G"/><use transform="matrix(0.05,0,0,0.05,71.80000000000001,0)" xlink:href="#E"/><use transform="matrix(0.05,0,0,0.05,81.80000000000001,0)" xlink:href="#H"/></g><path d="M115-194c53 0 69 39 70 98 0 66-23 100-70 100C84 3 66-7 56-30L54 0H23l1-261h32v101c10-23 28-34 59-34zm-8 174c40 0 45-34 45-75 0-40-5-75-45-74-42 0-51 32-51 76 0 43 10 73 51 73" id="K"/><path d="M59-47c-2 24 18 29 38 22v24C64 9 27 4 27-40v-127H5v-23h24l9-43h21v43h35v23H59v120" id="L"/><path d="M135-143c-3-34-86-38-87 0 15 53 115 12 119 90S17 21 10-45l28-5c4 36 97 45 98 0-10-56-113-15-118-90-4-57 82-63 122-42 12 7 21 19 24 35" id="M"/><path d="M141-36C126-15 110 5 73 4 37 3 15-17 15-53c-1-64 63-63 125-63 3-35-9-54-41-54-24 1-41 7-42 31l-33-3c5-37 33-52 76-52 45 0 72 20 72 64v82c-1 20 7 32 28 27v20c-31 9-61-2-59-35zM48-53c0 20 12 33 32 33 41-3 63-29 60-74-43 2-92-5-92 41" id="N"/><path d="M115-194c55 1 70 41 70 98S169 2 115 4C84 4 66-9 55-30l1 105H24l-1-265h31l2 30c10-21 28-34 59-34zm-8 174c40 0 45-34 45-75s-6-73-45-74c-42 0-51 32-51 76 0 43 10 73 51 73" id="O"/><g id="b"><use transform="matrix(0.05,0,0,0.05,0,0)" xlink:href="#K"/><use transform="matrix(0.05,0,0,0.05,10,0)" xlink:href="#D"/><use transform="matrix(0.05,0,0,0.05,20,0)" xlink:href="#D"/><use transform="matrix(0.05,0,0,0.05,30,0)" xlink:href="#L"/><use transform="matrix(0.05,0,0,0.05,35,0)" xlink:href="#M"/><use transform="matrix(0.05,0,0,0.05,44,0)" xlink:href="#L"/><use transform="matrix(0.05,0,0,0.05,49,0)" xlink:href="#J"/><use transform="matrix(0.05,0,0,0.05,54.95,0)" xlink:href="#N"/><use transform="matrix(0.05,0,0,0.05,64.95,0)" xlink:href="#O"/></g><path d="M30-248c118-7 216 8 213 122C240-48 200 0 122 0H30v-248zM63-27c89 8 146-16 146-99s-60-101-146-95v194" id="P"/><path d="M96-169c-40 0-48 33-48 73s9 75 48 75c24 0 41-14 43-38l32 2c-6 37-31 61-74 61-59 0-76-41-82-99-10-93 101-131 147-64 4 7 5 14 7 22l-32 3c-4-21-16-35-41-35" id="Q"/><path d="M108 0H70L1-190h34L89-25l56-165h34" id="R"/><path d="M100-194c63 0 86 42 84 106H49c0 40 14 67 53 68 26 1 43-12 49-29l28 8c-11 28-37 45-77 45C44 4 14-33 15-96c1-61 26-98 85-98zm52 81c6-60-76-77-97-28-3 7-6 17-6 28h103" id="S"/><g id="c"><use transform="matrix(0.048148148148148155,0,0,0.048148148148148155,0,0)" xlink:href="#P"/><use transform="matrix(0.048148148148148155,0,0,0.048148148148148155,12.470370370370372,0)" xlink:href="#G"/><use transform="matrix(0.048148148148148155,0,0,0.048148148148148155,16.274074074074075,0)" xlink:href="#M"/><use transform="matrix(0.048148148148148155,0,0,0.048148148148148155,24.940740740740743,0)" xlink:href="#Q"/><use transform="matrix(0.048148148148148155,0,0,0.048148148148148155,33.60740740740741,0)" xlink:href="#D"/><use transform="matrix(0.048148148148148155,0,0,0.048148148148148155,43.23703703703704,0)" xlink:href="#R"/><use transform="matrix(0.048148148148148155,0,0,0.048148148148148155,51.90370370370371,0)" xlink:href="#S"/><use transform="matrix(0.048148148148148155,0,0,0.048148148148148155,61.533333333333346,0)" xlink:href="#J"/><use transform="matrix(0.048148148148148155,0,0,0.048148148148148155,67.26296296296297,0)" xlink:href="#G"/><use transform="matrix(0.048148148148148155,0,0,0.048148148148148155,71.06666666666668,0)" xlink:href="#E"/><use transform="matrix(0.048148148148148155,0,0,0.048148148148148155,80.69629629629631,0)" xlink:href="#H"/></g><path d="M197 0v-115H63V0H30v-248h33v105h134v-105h34V0h-34" id="T"/><path d="M266 0h-40l-56-210L115 0H75L2-248h35L96-30l15-64 43-154h32l59 218 59-218h35" id="U"/><g id="d"><use transform="matrix(0.048148148148148155,0,0,0.048148148148148155,0,0)" xlink:href="#T"/><use transform="matrix(0.048148148148148155,0,0,0.048148148148148155,12.470370370370372,0)" xlink:href="#U"/></g><g id="e"><use transform="matrix(0.048148148148148155,0,0,0.048148148148148155,0,0)" xlink:href="#D"/><use transform="matrix(0.048148148148148155,0,0,0.048148148148148155,9.629629629629632,0)" xlink:href="#F"/></g><use transform="matrix(0.048148148148148155,0,0,0.048148148148148155,0,0)" xlink:href="#N" id="f"/><path d="M210-169c-67 3-38 105-44 169h-31v-121c0-29-5-50-35-48C34-165 62-65 56 0H25l-1-190h30c1 10-1 24 2 32 10-44 99-50 107 0 11-21 27-35 58-36 85-2 47 119 55 194h-31v-121c0-29-5-49-35-48" id="V"/><path d="M24 0v-261h32V0H24" id="W"/><path d="M106-169C34-169 62-67 57 0H25v-261h32l-1 103c12-21 28-36 61-36 89 0 53 116 60 194h-32v-121c2-32-8-49-39-48" id="X"/><g id="g"><use transform="matrix(0.048148148148148155,0,0,0.048148148148148155,0,0)" xlink:href="#V"/><use transform="matrix(0.048148148148148155,0,0,0.048148148148148155,14.396296296296299,0)" xlink:href="#I"/><use transform="matrix(0.048148148148148155,0,0,0.048148148148148155,24.025925925925932,0)" xlink:href="#W"/><use transform="matrix(0.048148148148148155,0,0,0.048148148148148155,27.829629629629633,0)" xlink:href="#L"/><use transform="matrix(0.048148148148148155,0,0,0.048148148148148155,32.64444444444445,0)" xlink:href="#G"/><use transform="matrix(0.048148148148148155,0,0,0.048148148148148155,36.44814814814816,0)" xlink:href="#O"/><use transform="matrix(0.048148148148148155,0,0,0.048148148148148155,46.07777777777779,0)" xlink:href="#N"/><use transform="matrix(0.048148148148148155,0,0,0.048148148148148155,55.70740740740742,0)" xlink:href="#L"/><use transform="matrix(0.048148148148148155,0,0,0.048148148148148155,60.52222222222224,0)" xlink:href="#X"/></g><path d="M179-190L93 31C79 59 56 82 12 73V49c39 6 53-20 64-50L1-190h34L92-34l54-156h33" id="Y"/><g id="h"><use transform="matrix(0.048148148148148155,0,0,0.048148148148148155,0,0)" xlink:href="#L"/><use transform="matrix(0.048148148148148155,0,0,0.048148148148148155,4.814814814814816,0)" xlink:href="#D"/><use transform="matrix(0.048148148148148155,0,0,0.048148148148148155,14.444444444444446,0)" xlink:href="#O"/><use transform="matrix(0.048148148148148155,0,0,0.048148148148148155,24.074074074074076,0)" xlink:href="#D"/><use transform="matrix(0.048148148148148155,0,0,0.048148148148148155,33.70370370370371,0)" xlink:href="#W"/><use transform="matrix(0.048148148148148155,0,0,0.048148148148148155,37.50740740740741,0)" xlink:href="#D"/><use transform="matrix(0.048148148148148155,0,0,0.048148148148148155,47.13703703703705,0)" xlink:href="#H"/><use transform="matrix(0.048148148148148155,0,0,0.048148148148148155,56.76666666666667,0)" xlink:href="#Y"/></g><path d="M137 0h-34L2-248h35l83 218 83-218h36" id="Z"/><path d="M206 0h-36l-40-164L89 0H53L-1-190h32L70-26l43-164h34l41 164 42-164h31" id="aa"/><g id="i"><use transform="matrix(0.048148148148148155,0,0,0.048148148148148155,0,0)" xlink:href="#Z"/><use transform="matrix(0.048148148148148155,0,0,0.048148148148148155,11.21851851851852,0)" xlink:href="#G"/><use transform="matrix(0.048148148148148155,0,0,0.048148148148148155,15.022222222222224,0)" xlink:href="#S"/><use transform="matrix(0.048148148148148155,0,0,0.048148148148148155,24.651851851851855,0)" xlink:href="#aa"/><use transform="matrix(0.048148148148148155,0,0,0.048148148148148155,37.12222222222223,0)" xlink:href="#G"/><use transform="matrix(0.048148148148148155,0,0,0.048148148148148155,40.92592592592593,0)" xlink:href="#E"/><use transform="matrix(0.048148148148148155,0,0,0.048148148148148155,50.555555555555564,0)" xlink:href="#H"/></g><g id="j"><use transform="matrix(0.048148148148148155,0,0,0.048148148148148155,0,0)" xlink:href="#L"/><use transform="matrix(0.048148148148148155,0,0,0.048148148148148155,4.814814814814816,0)" xlink:href="#X"/><use transform="matrix(0.048148148148148155,0,0,0.048148148148148155,14.444444444444446,0)" xlink:href="#S"/></g><path d="M85-194c31 0 48 13 60 33l-1-100h32l1 261h-30c-2-10 0-23-3-31C134-8 116 4 85 4 32 4 16-35 15-94c0-66 23-100 70-100zm9 24c-40 0-46 34-46 75 0 40 6 74 45 74 42 0 51-32 51-76 0-42-9-74-50-73" id="ab"/><g id="k"><use transform="matrix(0.048148148148148155,0,0,0.048148148148148155,0,0)" xlink:href="#N"/><use transform="matrix(0.048148148148148155,0,0,0.048148148148148155,9.629629629629632,0)" xlink:href="#M"/><use transform="matrix(0.048148148148148155,0,0,0.048148148148148155,18.296296296296298,0)" xlink:href="#M"/><use transform="matrix(0.048148148148148155,0,0,0.048148148148148155,26.962962962962965,0)" xlink:href="#S"/><use transform="matrix(0.048148148148148155,0,0,0.048148148148148155,36.592592592592595,0)" xlink:href="#V"/><use transform="matrix(0.048148148148148155,0,0,0.048148148148148155,50.988888888888894,0)" xlink:href="#K"/><use transform="matrix(0.048148148148148155,0,0,0.048148148148148155,60.61851851851853,0)" xlink:href="#W"/><use transform="matrix(0.048148148148148155,0,0,0.048148148148148155,64.42222222222223,0)" xlink:href="#S"/><use transform="matrix(0.048148148148148155,0,0,0.048148148148148155,74.05185185185186,0)" xlink:href="#ab"/></g><g id="l"><use transform="matrix(0.048148148148148155,0,0,0.048148148148148155,0,0)" xlink:href="#ab"/><use transform="matrix(0.048148148148148155,0,0,0.048148148148148155,9.629629629629632,0)" xlink:href="#S"/><use transform="matrix(0.048148148148148155,0,0,0.048148148148148155,19.259259259259263,0)" xlink:href="#R"/><use transform="matrix(0.048148148148148155,0,0,0.048148148148148155,27.92592592592593,0)" xlink:href="#G"/><use transform="matrix(0.048148148148148155,0,0,0.048148148148148155,31.729629629629635,0)" xlink:href="#Q"/><use transform="matrix(0.048148148148148155,0,0,0.048148148148148155,40.3962962962963,0)" xlink:href="#S"/></g><g id="m"><use transform="matrix(0.048148148148148155,0,0,0.048148148148148155,0,0)" xlink:href="#ab"/><use transform="matrix(0.048148148148148155,0,0,0.048148148148148155,9.629629629629632,0)" xlink:href="#S"/><use transform="matrix(0.048148148148148155,0,0,0.048148148148148155,19.259259259259263,0)" xlink:href="#L"/><use transform="matrix(0.048148148148148155,0,0,0.048148148148148155,24.07407407407408,0)" xlink:href="#N"/><use transform="matrix(0.048148148148148155,0,0,0.048148148148148155,33.70370370370371,0)" xlink:href="#G"/><use transform="matrix(0.048148148148148155,0,0,0.048148148148148155,37.50740740740741,0)" xlink:href="#W"/><use transform="matrix(0.048148148148148155,0,0,0.048148148148148155,41.31111111111112,0)" xlink:href="#M"/></g><g id="n"><use transform="matrix(0.048148148148148155,0,0,0.048148148148148155,0,0)" xlink:href="#G"/><use transform="matrix(0.048148148148148155,0,0,0.048148148148148155,3.8037037037037043,0)" xlink:href="#E"/></g><g id="o"><use transform="matrix(0.048148148148148155,0,0,0.048148148148148155,0,0)" xlink:href="#L"/><use transform="matrix(0.048148148148148155,0,0,0.048148148148148155,4.814814814814816,0)" xlink:href="#X"/><use transform="matrix(0.048148148148148155,0,0,0.048148148148148155,14.444444444444446,0)" xlink:href="#S"/></g><path d="M63-220v92h138v28H63V0H30v-248h175v28H63" id="ac"/><g id="p"><use transform="matrix(0.048148148148148155,0,0,0.048148148148148155,0,0)" xlink:href="#ac"/><use transform="matrix(0.048148148148148155,0,0,0.048148148148148155,10.544444444444446,0)" xlink:href="#I"/><use transform="matrix(0.048148148148148155,0,0,0.048148148148148155,20.174074074074078,0)" xlink:href="#S"/><use transform="matrix(0.048148148148148155,0,0,0.048148148148148155,29.803703703703714,0)" xlink:href="#W"/></g><g id="q"><use transform="matrix(0.048148148148148155,0,0,0.048148148148148155,0,0)" xlink:href="#aa"/><use transform="matrix(0.048148148148148155,0,0,0.048148148148148155,12.470370370370372,0)" xlink:href="#S"/><use transform="matrix(0.048148148148148155,0,0,0.048148148148148155,22.1,0)" xlink:href="#K"/></g><path d="M232-93c-1 65-40 97-104 97C67 4 28-28 28-90v-158h33c8 89-33 224 67 224 102 0 64-133 71-224h33v155" id="ad"/><path d="M33 0v-248h34V0H33" id="ae"/><g id="r"><use transform="matrix(0.048148148148148155,0,0,0.048148148148148155,0,0)" xlink:href="#ad"/><use transform="matrix(0.048148148148148155,0,0,0.048148148148148155,12.470370370370372,0)" xlink:href="#ae"/></g><path d="M30-248c87 1 191-15 191 75 0 78-77 80-158 76V0H30v-248zm33 125c57 0 124 11 124-50 0-59-68-47-124-48v98" id="af"/><g id="s"><use transform="matrix(0.048148148148148155,0,0,0.048148148148148155,0,0)" xlink:href="#af"/><use transform="matrix(0.048148148148148155,0,0,0.048148148148148155,11.555555555555557,0)" xlink:href="#J"/><use transform="matrix(0.048148148148148155,0,0,0.048148148148148155,17.28518518518519,0)" xlink:href="#D"/><use transform="matrix(0.048148148148148155,0,0,0.048148148148148155,26.914814814814818,0)" xlink:href="#R"/><use transform="matrix(0.048148148148148155,0,0,0.048148148148148155,35.58148148148149,0)" xlink:href="#G"/><use transform="matrix(0.048148148148148155,0,0,0.048148148148148155,39.38518518518519,0)" xlink:href="#M"/><use transform="matrix(0.048148148148148155,0,0,0.048148148148148155,48.051851851851865,0)" xlink:href="#G"/><use transform="matrix(0.048148148148148155,0,0,0.048148148148148155,51.85555555555556,0)" xlink:href="#D"/><use transform="matrix(0.048148148148148155,0,0,0.048148148148148155,61.4851851851852,0)" xlink:href="#E"/><use transform="matrix(0.048148148148148155,0,0,0.048148148148148155,71.11481481481484,0)" xlink:href="#G"/><use transform="matrix(0.048148148148148155,0,0,0.048148148148148155,74.91851851851854,0)" xlink:href="#E"/><use transform="matrix(0.048148148148148155,0,0,0.048148148148148155,84.54814814814817,0)" xlink:href="#H"/></g><path d="M233-177c-1 41-23 64-60 70L243 0h-38l-65-103H63V0H30v-248c88 3 205-21 203 71zM63-129c60-2 137 13 137-47 0-61-80-42-137-45v92" id="ag"/><g id="t"><use transform="matrix(0.048148148148148155,0,0,0.048148148148148155,0,0)" xlink:href="#ag"/><use transform="matrix(0.048148148148148155,0,0,0.048148148148148155,12.470370370370372,0)" xlink:href="#S"/><use transform="matrix(0.048148148148148155,0,0,0.048148148148148155,22.1,0)" xlink:href="#K"/><use transform="matrix(0.048148148148148155,0,0,0.048148148148148155,31.729629629629635,0)" xlink:href="#D"/><use transform="matrix(0.048148148148148155,0,0,0.048148148148148155,41.35925925925927,0)" xlink:href="#D"/><use transform="matrix(0.048148148148148155,0,0,0.048148148148148155,50.988888888888894,0)" xlink:href="#L"/><use transform="matrix(0.048148148148148155,0,0,0.048148148148148155,55.803703703703725,0)" xlink:href="#G"/><use transform="matrix(0.048148148148148155,0,0,0.048148148148148155,59.60740740740743,0)" xlink:href="#E"/><use transform="matrix(0.048148148148148155,0,0,0.048148148148148155,69.23703703703706,0)" xlink:href="#H"/></g><use transform="matrix(0.048148148148148155,0,0,0.048148148148148155,0,0)" xlink:href="#N" id="u"/><g id="v"><use transform="matrix(0.048148148148148155,0,0,0.048148148148148155,0,0)" xlink:href="#O"/><use transform="matrix(0.048148148148148155,0,0,0.048148148148148155,9.629629629629632,0)" xlink:href="#J"/><use transform="matrix(0.048148148148148155,0,0,0.048148148148148155,15.359259259259261,0)" xlink:href="#D"/><use transform="matrix(0.048148148148148155,0,0,0.048148148148148155,24.988888888888894,0)" xlink:href="#R"/><use transform="matrix(0.048148148148148155,0,0,0.048148148148148155,33.655555555555566,0)" xlink:href="#G"/><use transform="matrix(0.048148148148148155,0,0,0.048148148148148155,37.45925925925927,0)" xlink:href="#M"/><use transform="matrix(0.048148148148148155,0,0,0.048148148148148155,46.12592592592594,0)" xlink:href="#G"/><use transform="matrix(0.048148148148148155,0,0,0.048148148148148155,49.929629629629645,0)" xlink:href="#D"/><use transform="matrix(0.048148148148148155,0,0,0.048148148148148155,59.55925925925928,0)" xlink:href="#E"/><use transform="matrix(0.048148148148148155,0,0,0.048148148148148155,69.18888888888891,0)" xlink:href="#S"/><use transform="matrix(0.048148148148148155,0,0,0.048148148148148155,78.81851851851854,0)" xlink:href="#ab"/></g><g id="w"><use transform="matrix(0.048148148148148155,0,0,0.048148148148148155,0,0)" xlink:href="#E"/><use transform="matrix(0.048148148148148155,0,0,0.048148148148148155,9.629629629629632,0)" xlink:href="#D"/><use transform="matrix(0.048148148148148155,0,0,0.048148148148148155,19.259259259259263,0)" xlink:href="#ab"/><use transform="matrix(0.048148148148148155,0,0,0.048148148148148155,28.888888888888893,0)" xlink:href="#S"/></g><g id="x"><use transform="matrix(0.048148148148148155,0,0,0.048148148148148155,0,0)" xlink:href="#D"/><use transform="matrix(0.048148148148148155,0,0,0.048148148148148155,9.629629629629632,0)" xlink:href="#E"/></g><use transform="matrix(0.048148148148148155,0,0,0.048148148148148155,0,0)" xlink:href="#N" id="y"/><g id="z"><use transform="matrix(0.048148148148148155,0,0,0.048148148148148155,0,0)" xlink:href="#L"/><use transform="matrix(0.048148148148148155,0,0,0.048148148148148155,4.814814814814816,0)" xlink:href="#N"/><use transform="matrix(0.048148148148148155,0,0,0.048148148148148155,14.444444444444446,0)" xlink:href="#J"/><use transform="matrix(0.048148148148148155,0,0,0.048148148148148155,20.174074074074078,0)" xlink:href="#H"/><use transform="matrix(0.048148148148148155,0,0,0.048148148148148155,29.803703703703714,0)" xlink:href="#S"/><use transform="matrix(0.048148148148148155,0,0,0.048148148148148155,39.433333333333344,0)" xlink:href="#L"/></g><g id="A"><use transform="matrix(0.048148148148148155,0,0,0.048148148148148155,0,0)" xlink:href="#D"/><use transform="matrix(0.048148148148148155,0,0,0.048148148148148155,9.629629629629632,0)" xlink:href="#O"/><use transform="matrix(0.048148148148148155,0,0,0.048148148148148155,19.259259259259263,0)" xlink:href="#S"/><use transform="matrix(0.048148148148148155,0,0,0.048148148148148155,28.888888888888893,0)" xlink:href="#J"/><use transform="matrix(0.048148148148148155,0,0,0.048148148148148155,34.61851851851852,0)" xlink:href="#N"/><use transform="matrix(0.048148148148148155,0,0,0.048148148148148155,44.248148148148154,0)" xlink:href="#L"/><use transform="matrix(0.048148148148148155,0,0,0.048148148148148155,49.06296296296297,0)" xlink:href="#G"/><use transform="matrix(0.048148148148148155,0,0,0.048148148148148155,52.866666666666674,0)" xlink:href="#E"/><use transform="matrix(0.048148148148148155,0,0,0.048148148148148155,62.49629629629631,0)" xlink:href="#H"/></g><g id="B"><use transform="matrix(0.048148148148148155,0,0,0.048148148148148155,0,0)" xlink:href="#M"/><use transform="matrix(0.048148148148148155,0,0,0.048148148148148155,8.666666666666668,0)" xlink:href="#Y"/><use transform="matrix(0.048148148148148155,0,0,0.048148148148148155,17.333333333333336,0)" xlink:href="#M"/><use transform="matrix(0.048148148148148155,0,0,0.048148148148148155,26.000000000000004,0)" xlink:href="#L"/><use transform="matrix(0.048148148148148155,0,0,0.048148148148148155,30.81481481481482,0)" xlink:href="#S"/><use transform="matrix(0.048148148148148155,0,0,0.048148148148148155,40.44444444444445,0)" xlink:href="#V"/></g></defs></g></svg>